<svg xmlns="http://www.w3.org/2000/svg" width="70.559" height="70.559" viewBox="0 0 70.559 70.559">
  <g id="embassy" transform="translate(0)">
    <path id="Trazado_309" data-name="Trazado 309" d="M69.181,40.241H59.534V35.28a1.378,1.378,0,0,0-1.055-1.34L53,32.619a17.915,17.915,0,0,0-16.339-15.2V13.781H51.817a1.378,1.378,0,0,0,.975-2.353L48.253,6.891l4.538-4.538A1.378,1.378,0,0,0,51.817,0H35.28A1.378,1.378,0,0,0,33.9,1.378v16.04a17.915,17.915,0,0,0-16.339,15.2L12.08,33.94a1.378,1.378,0,0,0-1.055,1.34v4.961H1.378A1.378,1.378,0,0,0,0,41.619V69.181a1.378,1.378,0,0,0,1.378,1.378h27.7a1.378,1.378,0,0,0,0-2.756h-15.3V65.047h43V67.8h-15.3a1.378,1.378,0,0,0,0,2.756h27.7a1.378,1.378,0,0,0,1.378-1.378V41.619A1.378,1.378,0,0,0,69.181,40.241ZM36.658,2.756H48.49l-3.16,3.16a1.378,1.378,0,0,0,0,1.949l3.16,3.16H36.658ZM35.28,20.12A15.074,15.074,0,0,1,50.066,31.913L35.6,28.427a1.379,1.379,0,0,0-.646,0L20.493,31.913A15.074,15.074,0,0,1,35.28,20.12Zm-21.5,16.245,21.5-5.18,21.5,5.18v3.876h-43ZM22.05,43V62.291H19.294V43Zm2.756,0h6.339V62.291H24.806Zm9.1,0h2.756V62.291H33.9Zm5.512,0h6.339V62.291H39.414Zm9.1,0h2.756V62.291H48.51ZM2.756,67.8V43H16.537V62.291H13.781V58.156A1.378,1.378,0,0,0,12.4,56.778H6.891a1.378,1.378,0,0,0-1.378,1.378v5.512a1.378,1.378,0,0,0,1.378,1.378h4.134V67.8Zm8.269-5.512H8.269V59.534h2.756ZM67.8,67.8H59.534V65.047h4.134a1.378,1.378,0,0,0,1.378-1.378V58.156a1.378,1.378,0,0,0-1.378-1.378H58.156a1.378,1.378,0,0,0-1.378,1.378v4.134H54.022V43H67.8Zm-8.269-5.512V59.534h2.756v2.756Z" fill="#7044f6"/>
    <path id="Trazado_310" data-name="Trazado 310" d="M412,333.378v5.512a1.378,1.378,0,0,0,1.378,1.378h5.512a1.378,1.378,0,0,0,1.378-1.378v-5.512A1.378,1.378,0,0,0,418.891,332h-5.512A1.378,1.378,0,0,0,412,333.378Zm2.756,1.378h2.756v2.756h-2.756Z" transform="translate(-355.222 -286.247)" fill="#7044f6"/>
    <path id="Trazado_311" data-name="Trazado 311" d="M41.378,340.269h5.512a1.378,1.378,0,0,0,1.378-1.378v-5.512A1.378,1.378,0,0,0,46.891,332H41.378A1.378,1.378,0,0,0,40,333.378v5.512A1.378,1.378,0,0,0,41.378,340.269Zm1.378-5.512h2.756v2.756H42.756Z" transform="translate(-34.488 -286.247)" fill="#7044f6"/>
    <circle id="Elipse_63" data-name="Elipse 63" cx="1.5" cy="1.5" r="1.5" transform="translate(34 67.559)" fill="#7044f6"/>
  </g>
</svg>
