<svg xmlns="http://www.w3.org/2000/svg" xmlns:xlink="http://www.w3.org/1999/xlink" width="177.972" height="21.752" viewBox="0 0 177.972 21.752">
  <defs>
    <linearGradient id="linear-gradient" x1="0.5" y1="-0.078" x2="0.5" y2="0.922" gradientUnits="objectBoundingBox">
      <stop offset="0" stop-color="#fff" stop-opacity="0"/>
      <stop offset="0.427" stop-opacity="0.431"/>
      <stop offset="1"/>
    </linearGradient>
  </defs>
  <g id="Grupo_13" data-name="Grupo 13" transform="translate(0.25 0.751)">
    <path id="Trazado_16" data-name="Trazado 16" d="M14.159-44.583c5.148,0,8.534-3.078,8.534-8.813v-.923H15.362v.867h6.351v.2c-.028,4.9-2.658,7.806-7.554,7.806-5.428,0-8.534-3.693-8.534-9.233v-.224c0-5.4,3.525-9.233,8.45-9.233,3.385,0,6.1,1.483,6.911,4.84h1.007c-.783-3.917-4.169-5.68-7.946-5.68-5.316,0-9.457,4.225-9.457,10.1v.224C4.59-48.78,8.2-44.583,14.159-44.583Zm34.974-.2h11.08v-.867H50.14V-64.784H49.133Zm87.743.2c4.113,0,6.575-2.462,6.575-5.512,0-3.749-2.014-4.924-6.547-5.6-4.2-.616-5.512-1.9-5.512-4.253,0-2.714,1.959-4.2,5.232-4.2,3.106,0,4.728,1.427,5.2,3.889h.951c-.476-2.966-2.6-4.728-6.155-4.728-3.721,0-6.211,1.987-6.211,5.092,0,2.938,1.875,4.477,6.351,5.12,4.141.616,5.68,1.595,5.68,4.7,0,2.63-2.042,4.617-5.568,4.617-4.225,0-5.9-2.21-6.3-4.84H129.6C130.021-47.1,132.2-44.583,136.876-44.583Zm38.611,0c4.113,0,6.575-2.462,6.575-5.512,0-3.749-2.015-4.924-6.547-5.6-4.2-.616-5.512-1.9-5.512-4.253,0-2.714,1.959-4.2,5.232-4.2,3.106,0,4.728,1.427,5.2,3.889h.951c-.476-2.966-2.6-4.728-6.155-4.728-3.721,0-6.211,1.987-6.211,5.092,0,2.938,1.875,4.477,6.351,5.12,4.141.616,5.68,1.595,5.68,4.7,0,2.63-2.042,4.617-5.568,4.617-4.225,0-5.9-2.21-6.3-4.84h-.979C168.632-47.1,170.815-44.583,175.487-44.583Z" transform="translate(-4.59 64.98)" stroke="#000" stroke-width="0.5"/>
    <g id="Grupo_10" data-name="Grupo 10" transform="translate(79.726 0.749)">
      <path id="Trazado_7" data-name="Trazado 7" d="M537.762,397.812l11.4-3.222,20.1.187-7.646,4.046" transform="translate(-537.762 -378.571)" opacity="0.5" fill="url(#linear-gradient)"/>
      <path id="Trazado_8" data-name="Trazado 8" d="M549.4,336.149l-11.143,19.3h22.286Z" transform="translate(-538.122 -336.149)" fill="none" stroke="#000" stroke-miterlimit="10" stroke-width="1.5"/>
    </g>
  </g>
</svg>
