<svg xmlns="http://www.w3.org/2000/svg" width="39.752" height="39.729" viewBox="0 0 39.752 39.729">
  <g id="mission" transform="translate(0.26 0.25)">
    <path id="Trazado_293" data-name="Trazado 293" d="M30.239,35.093H.817A.818.818,0,0,1,.1,33.883L14.811,6.913a.851.851,0,0,1,1.435,0l14.711,26.97a.818.818,0,0,1-.718,1.21ZM2.193,33.458H28.861L15.528,9.012Z" transform="translate(0 4.137)" fill="#a0a0a0" stroke="#a0a0a0" stroke-width="0.5"/>
    <path id="Trazado_294" data-name="Trazado 294" d="M28.784,30.98H20.611a.817.817,0,1,1,0-1.635H27.4L19.842,15.6l-3.115,6.447a.817.817,0,1,1-1.471-.713l3.805-7.872A.82.82,0,0,1,19.775,13a.86.86,0,0,1,.737.423L29.5,29.769a.818.818,0,0,1-.718,1.211Z" transform="translate(9.628 8.249)" fill="#a0a0a0" stroke="#a0a0a0" stroke-width="0.5"/>
    <path id="Trazado_295" data-name="Trazado 295" d="M9.817,12.259A.818.818,0,0,1,9,11.442V.817A.818.818,0,0,1,9.817,0h9.807A.818.818,0,0,1,20.2,1.4l-2.692,2.69,2.69,2.69a.818.818,0,0,1-.577,1.4h-8.99v3.269a.818.818,0,0,1-.817.817Zm.817-5.721h7.017L15.779,4.665a.818.818,0,0,1,0-1.156l1.873-1.875H10.635Z" transform="translate(5.711 0)" fill="#a0a0a0" stroke="#a0a0a0" stroke-width="0.5"/>
    <path id="Trazado_296" data-name="Trazado 296" d="M14.287,16.9c-.02,0-.038,0-.059,0a.813.813,0,0,1-.595-.325l-1.8-2.4-1.8,2.4a.821.821,0,0,1-.595.325.79.79,0,0,1-.636-.237L6.06,13.912a.817.817,0,1,1,1.156-1.156l2.079,2.079,1.886-2.516a.846.846,0,0,1,1.308,0l1.886,2.516,2.079-2.079a.817.817,0,1,1,1.156,1.156l-2.746,2.746a.815.815,0,0,1-.577.239Z" transform="translate(3.694 7.622)" fill="#a0a0a0" stroke="#a0a0a0" stroke-width="0.5"/>
  </g>
</svg>
