<svg xmlns="http://www.w3.org/2000/svg" width="52.631" height="46.052" viewBox="0 0 52.631 46.052">
  <g id="store_1_" data-name="store (1)" transform="translate(0 -32)">
    <g id="Grupo_309" data-name="Grupo 309" transform="translate(0 32)">
      <path id="Trazado_317" data-name="Trazado 317" d="M52.582,46.4,49.292,33.247A1.643,1.643,0,0,0,47.7,32H4.934a1.643,1.643,0,0,0-1.6,1.247L.049,46.4A1.609,1.609,0,0,0,0,46.8a8.342,8.342,0,0,0,3.289,6.681V76.408a1.645,1.645,0,0,0,1.645,1.645H21.381a1.645,1.645,0,0,0,1.645-1.645V64.894h6.579V76.408a1.645,1.645,0,0,0,1.645,1.645H47.7a1.645,1.645,0,0,0,1.645-1.645V53.483A8.342,8.342,0,0,0,52.631,46.8,1.609,1.609,0,0,0,52.582,46.4Zm-6.53,28.358H32.894V63.25a1.645,1.645,0,0,0-1.645-1.645H21.381a1.645,1.645,0,0,0-1.645,1.645V74.763H6.579V54.895a7.3,7.3,0,0,0,1.234.132,7.671,7.671,0,0,0,6.168-3.181,7.57,7.57,0,0,0,12.335,0,7.57,7.57,0,0,0,12.335,0,7.671,7.671,0,0,0,6.168,3.181,7.3,7.3,0,0,0,1.234-.132ZM44.819,51.737A4.748,4.748,0,0,1,40.3,46.8a1.645,1.645,0,1,0-3.289,0,4.748,4.748,0,0,1-4.523,4.934A4.748,4.748,0,0,1,27.96,46.8a1.645,1.645,0,1,0-3.289,0,4.748,4.748,0,0,1-4.523,4.934A4.748,4.748,0,0,1,15.625,46.8a1.645,1.645,0,1,0-3.289,0,4.748,4.748,0,0,1-4.523,4.934,4.731,4.731,0,0,1-4.52-4.743l2.928-11.7H46.414l2.928,11.7A4.736,4.736,0,0,1,44.819,51.737Z" transform="translate(0 -32)" fill="#7044f6"/>
    </g>
  </g>
</svg>
