<svg xmlns="http://www.w3.org/2000/svg" width="70.647" height="72.964" viewBox="0 0 70.647 72.964">
  <g id="store" transform="translate(-0.109 0)">
    <path id="Trazado_304" data-name="Trazado 304" d="M171.071,32.768l9.744-16.931a10.494,10.494,0,0,0,1.218-4.628v-.853a10.98,10.98,0,0,0-21.925,0v.853a9.52,9.52,0,0,0,1.218,4.75Zm-8.526-22.534a8.55,8.55,0,0,1,17.053,0v.853a7.208,7.208,0,0,1-.853,3.532L171.071,27.9,163.4,14.62a7.207,7.207,0,0,1-.852-3.532Zm0,0" transform="translate(-135.639)" fill="#7044f6"/>
    <path id="Trazado_305" data-name="Trazado 305" d="M204.981,40.959a4.872,4.872,0,1,0-4.872-4.872A4.887,4.887,0,0,0,204.981,40.959Zm0-7.308a2.436,2.436,0,1,1-2.436,2.436A2.444,2.444,0,0,1,204.981,33.651Zm0,0" transform="translate(-169.549 -26.462)" fill="#7044f6"/>
    <path id="Trazado_306" data-name="Trazado 306" d="M64.666,109.062v-5.847H47.613v2.436H62.229v2.436H45.177v2.436h17.54l5.6,11.206v.974H2.545v-.974l5.6-11.206h17.54v-2.436H8.635v-2.436H23.252v-2.436H6.2v5.847L.109,121.242v6.943a5.49,5.49,0,0,0,2.436,4.507v27.771H68.32V132.692a5.491,5.491,0,0,0,2.436-4.507v-6.943ZM48.222,131.23a3.015,3.015,0,0,1-3.045-3.045V125.14h6.09v3.045A3.016,3.016,0,0,1,48.222,131.23Zm-37.151-6.09h6.09v3.045a3.045,3.045,0,0,1-6.09,0Zm8.526,0h6.09v3.045a3.045,3.045,0,0,1-6.09,0Zm8.526,0h6.09v3.045a3.045,3.045,0,0,1-6.09,0Zm8.526,0h6.09v3.045a3.045,3.045,0,0,1-6.09,0Zm17.053,0h6.09v3.045a3.045,3.045,0,0,1-6.09,0Zm-45.068,0v3.045A3.016,3.016,0,0,1,5.59,131.23a3.015,3.015,0,0,1-3.045-3.045V125.14ZM5.59,133.666a5.2,5.2,0,0,0,4.263-2.07,5.417,5.417,0,0,0,7.552.974,7.377,7.377,0,0,0,.975-.974,5.417,5.417,0,0,0,7.552.974,7.377,7.377,0,0,0,.975-.974,5.417,5.417,0,0,0,7.552.974,7.377,7.377,0,0,0,.975-.974,5.417,5.417,0,0,0,7.552.974,7.377,7.377,0,0,0,.975-.974,5.833,5.833,0,0,0,3.654,2.07v19.489H4.981V133.544a1.1,1.1,0,0,0,.609.122Zm-.609,21.925H47.613v2.436H4.981Zm60.9,2.436H50.049V133.3a5.893,5.893,0,0,0,2.436-1.705,5.417,5.417,0,0,0,7.552.974,7.377,7.377,0,0,0,.975-.974,5.2,5.2,0,0,0,4.263,2.07,1.1,1.1,0,0,0,.609-.122Zm2.436-29.842a3.045,3.045,0,0,1-6.09,0V125.14h6.09Zm0,0" transform="translate(0 -87.499)" fill="#7044f6"/>
    <path id="Trazado_307" data-name="Trazado 307" d="M344.109,359.215h2.436v2.436h-2.436Zm0,0" transform="translate(-291.624 -304.522)" fill="#7044f6"/>
    <path id="Trazado_308" data-name="Trazado 308" d="M85.869,319.215H48.109v13.4h37.76Zm-2.436,10.962H50.545v-8.526H83.433Zm0,0" transform="translate(-40.692 -270.612)" fill="#7044f6"/>
  </g>
</svg>
