<svg xmlns="http://www.w3.org/2000/svg" width="38.263" height="39.852" viewBox="0 0 38.263 39.852">
  <g id="telescope" transform="translate(-9.959 0.252)">
    <g id="Grupo_295" data-name="Grupo 295" transform="translate(10.253 0)">
      <path id="Trazado_297" data-name="Trazado 297" d="M47.6,22.967h0L42.513,20.03l.326-.565a.653.653,0,0,0-.239-.891l-5.09-2.937.326-.566a.653.653,0,0,0-.239-.891L18.952,3.411,19.6,2.283a.653.653,0,0,0-.239-.891L17.105.087a.665.665,0,0,0-.5-.065.653.653,0,0,0-.4.3L10.34,10.5a.653.653,0,0,0,.239.891l2.261,1.305a.653.653,0,0,0,.326.087.675.675,0,0,0,.169-.022.653.653,0,0,0,.4-.3l.653-1.128,10.8,6.233a3.225,3.225,0,0,0,1.276,3.724L17.9,38.4a.653.653,0,1,0,1.168.583l8.552-17.111V38.694a.653.653,0,0,0,1.305,0V21.88l8.549,17.106a.653.653,0,1,0,1.168-.583L30.087,21.291a3.163,3.163,0,0,0,.617-.536L33.027,22.1a.653.653,0,0,0,.326.087.675.675,0,0,0,.169-.022.653.653,0,0,0,.4-.3l.326-.568,5.09,2.937a.653.653,0,0,0,.891-.239l.326-.564,5.09,2.937a.654.654,0,0,0,.891-.24l1.305-2.261A.653.653,0,0,0,47.6,22.967ZM12.926,11.238l-1.13-.653,5.221-9.042,1.13.653ZM29.965,19.57a1.926,1.926,0,0,1-.974.842,1.985,1.985,0,0,1-1.077.1,2.274,2.274,0,0,1-.388-.114,1.512,1.512,0,0,1-.234-.11,1.953,1.953,0,0,1-.717-2.668l0-.008,0,0a1.938,1.938,0,0,1,1.182-.914,1.99,1.99,0,0,1,.461-.065c.047,0,.093,0,.14,0a1.971,1.971,0,0,1,.326.043c.045.01.09.018.131.031a1.988,1.988,0,0,1,.425.176A1.966,1.966,0,0,1,29.965,19.57Zm3.153,1.072L31.366,19.63a.114.114,0,0,1,.007-.029,3.2,3.2,0,0,0,.131-.561c.008-.065.008-.131.012-.2a3.257,3.257,0,0,0,.01-.4c0-.076-.015-.151-.024-.226a3.329,3.329,0,0,0-.06-.36c-.018-.078-.04-.153-.065-.229a3.277,3.277,0,0,0-.125-.335c-.032-.073-.065-.145-.1-.215a3.211,3.211,0,0,0-.191-.313c-.043-.065-.084-.131-.131-.19a3.379,3.379,0,0,0-.275-.3c-.048-.047-.09-.1-.142-.142a3.207,3.207,0,0,0-3.529-.484c-.05.023-.1.05-.147.077a3.2,3.2,0,0,0-.36.224l-.134.1a3.236,3.236,0,0,0-.408.383L15.036,10.2,18.3,4.542,36.38,14.983Zm6.307,2.129L34.9,20.16l1.958-3.393,4.521,2.61Zm6.3,2.133-4.521-2.61.653-1.13,4.521,2.61Z" transform="translate(-10.253 0)" fill="#a0a0a0" stroke="#a0a0a0" stroke-width="0.5"/>
    </g>
  </g>
</svg>
