<svg xmlns="http://www.w3.org/2000/svg" width="68.897" height="68.899" viewBox="0 0 68.897 68.899">
  <g id="tools" transform="translate(-0.5 0.001)">
    <path id="Trazado_312" data-name="Trazado 312" d="M338.686,155.148a1.345,1.345,0,1,0,1.346,1.345A1.345,1.345,0,0,0,338.686,155.148Zm0,0" transform="translate(-291.512 -134.271)" fill="#7044f6"/>
    <path id="Trazado_313" data-name="Trazado 313" d="M156.991,336.84a1.346,1.346,0,1,0,1.346,1.346A1.345,1.345,0,0,0,156.991,336.84Zm0,0" transform="translate(-134.268 -291.513)" fill="#7044f6"/>
    <path id="Trazado_314" data-name="Trazado 314" d="M67.725,8.278a1.345,1.345,0,0,0-1.259.363l-5.579,5.623H58.212l-2.944-3.05V8.5l5.5-5.581A1.346,1.346,0,0,0,60.238.7a13.467,13.467,0,0,0-17.3,16.242l-9.912,9.912L16.513,10.3V7.055A1.345,1.345,0,0,0,15.86,5.9L6.345.191A1.345,1.345,0,0,0,4.7.394L.9,4.2a1.347,1.347,0,0,0-.2,1.644L6.4,15.358a1.346,1.346,0,0,0,1.153.653H10.8L27.318,32.564l-9.874,9.874A13.465,13.465,0,0,0,1.2,59.737a1.346,1.346,0,0,0,2.23.518L9.01,54.633H11.7L14.764,57.7v2.689L9.141,65.965a1.346,1.346,0,0,0,.518,2.23,13.46,13.46,0,0,0,15.219-4.9,13.306,13.306,0,0,0,2.079-11.339l7.931-7.931L36.7,46l-.834.833a1.346,1.346,0,1,0,1.9,1.9l.755-.755L55.575,66.492l.039.04A8.075,8.075,0,0,0,67.033,55.113l-.042-.04L48.447,38.061l.746-.746a1.346,1.346,0,1,0-1.9-1.9l-.828.828-1.977-1.815,7.969-7.969a13.464,13.464,0,0,0,16.241-17.3,1.344,1.344,0,0,0-.97-.881ZM12.313,13.716a1.332,1.332,0,0,0-.952-.382H8.318L3.541,5.359l2.32-2.32,7.961,4.777V10.86a1.345,1.345,0,0,0,.393.95L31.124,28.758l-1.9,1.9ZM46.542,39.966l18.607,17.07a5.384,5.384,0,0,1-7.614,7.613l-17.1-18.575Zm-1.985-1.821L38.61,44.091l-1.817-1.973L42.58,36.33ZM55.94,24.221A10.754,10.754,0,0,1,52.5,23.66a1.348,1.348,0,0,0-1.381.324L24.485,50.62A1.345,1.345,0,0,0,24.161,52a10.776,10.776,0,0,1-10.2,14.2,11.023,11.023,0,0,1-1.173-.063L17.057,61.9a1.345,1.345,0,0,0,.4-.955V57.139a1.346,1.346,0,0,0-.394-.951l-3.853-3.853a1.346,1.346,0,0,0-.951-.394H8.45a1.347,1.347,0,0,0-.956.4l-4.24,4.274a10.886,10.886,0,0,1-.063-1.173,10.776,10.776,0,0,1,14.2-10.2,1.345,1.345,0,0,0,1.381-.324L45.412,18.276a1.346,1.346,0,0,0,.324-1.381,10.775,10.775,0,0,1,10.2-14.2,11,11,0,0,1,1.208.067L52.963,7.005a1.345,1.345,0,0,0-.387.944v3.807a1.344,1.344,0,0,0,.377.935l3.718,3.853a1.345,1.345,0,0,0,.968.411h3.807a1.345,1.345,0,0,0,.955-.4l4.24-4.274a10.886,10.886,0,0,1,.063,1.173A10.777,10.777,0,0,1,55.94,24.221Zm0,0" transform="translate(0 0)" fill="#7044f6"/>
    <path id="Trazado_315" data-name="Trazado 315" d="M201.158,183.82l-16.839,16.839a1.346,1.346,0,1,0,1.9,1.9l16.839-16.839a1.346,1.346,0,0,0-1.9-1.9Zm0,0" transform="translate(-158.741 -158.743)" fill="#7044f6"/>
    <path id="Trazado_316" data-name="Trazado 316" d="M357.8,359.461a1.346,1.346,0,0,0,1.9-1.906l-12.13-12.091a1.346,1.346,0,0,0-1.9,1.906Zm0,0" transform="translate(-298.383 -298.637)" fill="#7044f6"/>
  </g>
</svg>
